<?xml version="1.0" encoding="utf-8" ?>
<svg baseProfile="full" height="100%" version="1.1" width="100%" xmlns="http://www.w3.org/2000/svg" xmlns:ev="http://www.w3.org/2001/xml-events" xmlns:xlink="http://www.w3.org/1999/xlink"><defs /><path d="M 178 51 181 51 176 52 183 52 174 53 185 53 172 54 187 54 170 55 189 55 168 56 190 56 166 57 192 57 164 58 194 58 162 59 196 59 160 60 198 60 158 61 199 61 156 62 201 62 154 63 203 63 152 64 205 64 150 65 207 65 148 66 208 66 146 67 210 67 144 68 212 68 142 69 214 69 140 70 216 70 138 71 217 71 136 72 219 72 134 73 221 73 132 74 223 74 130 75 225 75 128 76 226 76 126 77 228 77 124 78 230 78 122 79 232 79 120 80 234 80 118 81 235 81 116 82 237 82 114 83 239 83 112 84 241 84 110 85 243 85 108 86 244 86 106 87 246 87 104 88 248 88 102 89 250 89 100 90 252 90 98 91 253 91 96 92 255 92 94 93 257 93 92 94 259 94 90 95 261 95 88 96 262 96 86 97 264 97 84 98 266 98 82 99 268 99 80 100 270 100 79 101 270 101 78 102 271 102 77 103 272 103 77 104 272 104 76 105 273 105 75 106 274 106 74 107 274 107 74 108 275 108 73 109 276 109 72 110 276 110 71 111 277 111 71 112 278 112 70 113 278 113 69 114 279 114 68 115 280 115 68 116 280 116 67 117 281 117 66 118 282 118 65 119 282 119 65 120 283 120 64 121 284 121 63 122 284 122 62 123 285 123 62 124 286 124 61 125 286 125 60 126 287 126 59 127 288 127 59 128 288 128 58 129 289 129 57 130 290 130 56 131 290 131 56 132 291 132 55 133 292 133 54 134 292 134 53 135 293 135 53 136 294 136 52 137 294 137 51 138 295 138 50 139 296 139 50 140 296 140 49 141 297 141 48 142 298 142 47 143 298 143 47 144 299 144 46 145 300 145 45 146 300 146 44 147 301 147 44 148 302 148 43 149 302 149 42 150 303 150 41 151 304 151 41 152 304 152 40 153 305 153 39 154 306 154 38 155 306 155 38 156 307 156 37 157 308 157 36 158 308 158 35 159 309 159 35 160 310 160 34 161 310 161 33 162 311 162 32 163 312 163 32 164 312 164 31 165 313 165 30 166 314 166 29 167 314 167 29 168 315 168 28 169 316 169 27 170 316 170 26 171 317 171 26 172 318 172 25 173 318 173 24 174 319 174 23 175 320 175 23 176 320 176 22 177 321 177 21 178 322 178 20 179 322 179 20 180 323 180 324 181 23 181 324 182 26 182 325 183 29 183 326 184 32 184 326 185 35 185 327 186 38 186 328 187 41 187 328 188 44 188 329 189 47 189 330 190 50 190 330 191 53 191 331 192 56 192 332 193 59 193 332 194 62 194 333 195 65 195 334 196 68 196 334 197 71 197 335 198 74 198 336 199 77 199 336 200 80 200 337 201 82 201 338 202 84 202 338 203 86 203 339 204 88 204 340 205 90 205 340 206 92 206 341 207 94 207 342 208 96 208 342 209 98 209 343 210 100 210 344 211 102 211 344 212 104 212 345 213 106 213 346 214 108 214 346 215 110 215 347 216 112 216 348 217 114 217 348 218 116 218 349 219 118 219 350 220 120 220 350 221 122 221 351 222 124 222 352 223 126 223 352 224 128 224 353 225 130 225 354 226 132 226 354 227 134 227 355 228 136 228 356 229 138 229 356 230 140 230 357 231 142 231 358 232 144 232 358 233 146 233 359 234 148 234 360 235 150 235 360 236 152 236 361 237 154 237 362 238 156 238 362 239 158 239 363 240 160 240 364 241 230 241 229 241 162 241 364 242 230 242 229 242 164 242 365 243 230 243 229 243 166 243 366 244 230 244 229 244 168 244 366 245 230 245 228 245 170 245 367 246 231 246 228 246 172 246 368 247 231 247 228 247 174 247 368 248 231 248 228 248 176 248 369 249 231 249 227 249 178 249 370 250 231 250 227 250 180 250 368 251 232 251 227 251 180 251 367 252 232 252 227 252 180 252 366 253 232 253 227 253 180 253 365 254 232 254 226 254 180 254 364 255 232 255 226 255 180 255 362 256 232 256 226 256 181 256 361 257 233 257 226 257 181 257 360 258 233 258 225 258 181 258 359 259 233 259 225 259 181 259 358 260 233 260 225 260 181 260 356 261 233 261 225 261 181 261 355 262 234 262 224 262 182 262 354 263 234 263 224 263 182 263 353 264 234 264 224 264 182 264 352 265 234 265 224 265 182 265 350 266 234 266 224 266 182 266 349 267 234 267 223 267 182 267 348 268 235 268 223 268 183 268 347 269 235 269 223 269 183 269 346 270 235 270 223 270 183 270 344 271 235 271 222 271 183 271 343 272 235 272 222 272 183 272 342 273 236 273 222 273 183 273 341 274 236 274 222 274 184 274 340 275 236 275 221 275 184 275 338 276 236 276 221 276 184 276 337 277 236 277 221 277 184 277 336 278 236 278 221 278 184 278 335 279 237 279 221 279 184 279 334 280 237 280 220 280 185 280 332 281 237 281 220 281 185 281 331 282 237 282 220 282 185 282 330 283 237 283 220 283 185 283 329 284 238 284 219 284 185 284 328 285 238 285 219 285 185 285 326 286 238 286 219 286 186 286 325 287 238 287 219 287 186 287 324 288 238 288 218 288 186 288 323 289 238 289 218 289 186 289 322 290 239 290 218 290 186 290 320 291 239 291 218 291 186 291 319 292 239 292 218 292 187 292 318 293 239 293 217 293 187 293 317 294 239 294 217 294 187 294 316 295 240 295 217 295 187 295 314 296 240 296 217 296 187 296 313 297 240 297 216 297 187 297 312 298 240 298 216 298 188 298 311 299 240 299 216 299 188 299 310 300 240 300 216 300 188 300 308 301 241 301 215 301 188 301 307 302 241 302 215 302 188 302 306 303 241 303 215 303 188 303 305 304 241 304 215 304 189 304 304 305 241 305 215 305 189 305 302 306 242 306 214 306 189 306 301 307 242 307 214 307 189 307 300 308 242 308 214 308 189 308 299 309 242 309 214 309 189 309 298 310 242 310 213 310 190 310 296 311 242 311 213 311 190 311 295 312 243 312 213 312 190 312 294 313 243 313 213 313 190 313 293 314 243 314 212 314 190 314 292 315 243 315 212 315 190 315 290 316 243 316 212 316 191 316 289 317 244 317 212 317 191 317 288 318 244 318 212 318 191 318 287 319 244 319 211 319 191 319 286 320 244 320 211 320 191 320 284 321 244 321 211 321 191 321 283 322 244 322 211 322 192 322 282 323 245 323 210 323 192 323 281 324 245 324 210 324 192 324 280 325 245 325 210 325 192 325 278 326 245 326 210 326 192 326 277 327 245 327 209 327 192 327 276 328 246 328 209 328 193 328 275 329 246 329 209 329 193 329 274 330 246 330 209 330 193 330 272 331 246 331 209 331 193 331 271 332 246 332 208 332 193 332 270 333 246 333 208 333 193 333 269 334 247 334 208 334 194 334 268 335 247 335 208 335 194 335 266 336 247 336 207 336 194 336 265 337 247 337 207 337 194 337 264 338 247 338 207 338 194 338 263 339 248 339 207 339 194 339 262 340 248 340 206 340 195 340 260 341 248 341 206 341 195 341 259 342 248 342 206 342 195 342 258 343 248 343 206 343 195 343 257 344 248 344 206 344 195 344 256 345 249 345 205 345 195 345 254 346 249 346 205 346 196 346 253 347 249 347 205 347 196 347 252 348 249 348 205 348 196 348 251 349 249 349 204 349 196 349 250 350 250 350 204 350 196 350 204 351 196 351 204 352 197 352 203 353 197 353 203 354 197 354 203 355 197 355 203 356 197 356 203 357 197 357 202 358 198 358 202 359 198 359 202 360 198 360 202 361 198 361 201 362 198 362 201 363 198 363 201 364 199 364 201 365 199 365 200 366 199 366 200 367 199 367 200 368 199 368 200 369 199 369 200 370 200 370 Z" style="fill:none;stroke:#000000;stroke-width:1px" /></svg>